<svg xmlns="http://www.w3.org/2000/svg" width="32" height="32" viewBox="0 0 32 32" fill="none">
  <rect width="32" height="32" rx="8" fill="#409EFF"/>
  <path d="M16 6C10.477 6 6 9.582 6 14c0 2.592 1.676 4.89 4.239 6.379-.374 1.48-1.074 2.756-1.074 2.756a.5.5 0 0 0 .596.694c2.07-.456 3.6-1.27 4.48-1.826.565.095 1.152.147 1.759.147 5.523 0 10-3.582 10-8S21.523 6 16 6z" fill="white"/>
  <circle cx="11.5" cy="14" r="1.5" fill="#409EFF"/>
  <circle cx="16" cy="14" r="1.5" fill="#409EFF"/>
  <circle cx="20.5" cy="14" r="1.5" fill="#409EFF"/>
</svg>
